<svg width="232" height="30" viewBox="0 0 232 30" fill="none" xmlns="http://www.w3.org/2000/svg">
<path d="M12.636 29.916C9.99599 29.916 7.71599 29.34 5.79599 28.188C3.89999 27.012 2.45999 25.404 1.47599 23.364C0.49199 21.324 -9.76026e-06 19.02 -9.76026e-06 16.452C-9.76026e-06 13.5 0.56399 10.968 1.69199 8.85602C2.84399 6.74402 4.46399 5.14802 6.55199 4.06802C8.63999 2.98802 11.076 2.44802 13.86 2.44802C16.476 2.44802 19.416 2.82002 22.68 3.56402L22.284 10.26H18.648L17.676 5.65202C17.436 5.41202 16.98 5.19602 16.308 5.00402C15.636 4.78802 14.76 4.68002 13.68 4.68002C11.328 4.68002 9.47999 5.64002 8.13599 7.56002C6.79199 9.45602 6.11999 12.204 6.11999 15.804C6.11999 19.332 6.69599 22.188 7.84799 24.372C8.99999 26.532 10.752 27.612 13.104 27.612C14.064 27.612 14.964 27.492 15.804 27.252C16.644 27.012 17.28 26.7 17.712 26.316V18.576L13.896 18.216V15.804H24.84V18.216L22.932 18.54V28.08C22.428 28.104 21.516 28.308 20.196 28.692C18.66 29.1 17.34 29.4 16.236 29.592C15.156 29.808 13.956 29.916 12.636 29.916ZM26.7531 23.904C26.7531 21.72 27.8451 20.076 30.0291 18.972C32.2371 17.868 35.0811 17.304 38.5611 17.28V16.452C38.5611 15.468 38.4531 14.7 38.2371 14.148C38.0451 13.596 37.6731 13.188 37.1211 12.924C36.5931 12.636 35.8131 12.492 34.7811 12.492C33.6051 12.492 32.5491 12.648 31.6131 12.96C30.6771 13.248 29.7051 13.632 28.6971 14.112L27.5811 11.808C27.9411 11.496 28.5411 11.124 29.3811 10.692C30.2451 10.26 31.2651 9.88802 32.4411 9.57602C33.6171 9.24002 34.8291 9.07202 36.0771 9.07202C37.9251 9.07202 39.3651 9.31202 40.3971 9.79202C41.4531 10.272 42.2091 11.04 42.6651 12.096C43.1211 13.152 43.3491 14.568 43.3491 16.344V27.36H45.2931V29.376C44.8131 29.496 44.1291 29.616 43.2411 29.736C42.3531 29.856 41.5731 29.916 40.9011 29.916C40.0851 29.916 39.5331 29.796 39.2451 29.556C38.9811 29.316 38.8491 28.824 38.8491 28.08V27.108C38.2011 27.828 37.3611 28.476 36.3291 29.052C35.2971 29.628 34.1331 29.916 32.8371 29.916C31.7331 29.916 30.7131 29.688 29.7771 29.232C28.8651 28.752 28.1331 28.068 27.5811 27.18C27.0291 26.268 26.7531 25.176 26.7531 23.904ZM35.1411 26.928C35.6451 26.928 36.2211 26.784 36.8691 26.496C37.5171 26.184 38.0811 25.812 38.5611 25.38V19.476C36.4011 19.476 34.7811 19.848 33.7011 20.592C32.6451 21.312 32.1171 22.248 32.1171 23.4C32.1171 24.552 32.3811 25.428 32.9091 26.028C33.4611 26.628 34.2051 26.928 35.1411 26.928ZM53.5877 29.844C52.0757 29.844 50.9597 29.496 50.2397 28.8C49.5197 28.104 49.1597 27 49.1597 25.488V12.276H46.8197V10.404C47.0117 10.332 47.3597 10.212 47.8637 10.044C48.3677 9.85202 48.7517 9.69602 49.0157 9.57602C49.4237 9.26402 49.7717 8.72402 50.0597 7.95602C50.2757 7.45202 50.6717 6.20402 51.2477 4.21202H54.1277L54.2717 9.50402H59.7797V12.276H54.3077V22.392C54.3077 23.736 54.3437 24.684 54.4157 25.236C54.4877 25.788 54.6437 26.148 54.8837 26.316C55.1237 26.46 55.5437 26.532 56.1437 26.532C56.7437 26.532 57.3677 26.472 58.0157 26.352C58.6637 26.208 59.2037 26.04 59.6357 25.848L60.3197 27.864C59.6477 28.368 58.6637 28.824 57.3677 29.232C56.0717 29.64 54.8117 29.844 53.5877 29.844ZM63.927 3.20402L61.191 2.73602V0.792018L67.887 1.7643e-05H67.995L68.931 0.684017L68.967 8.71202L68.715 11.844C69.459 11.172 70.467 10.548 71.739 9.97202C73.035 9.39602 74.391 9.10802 75.807 9.10802C77.319 9.10802 78.495 9.39602 79.335 9.97202C80.175 10.524 80.763 11.376 81.099 12.528C81.435 13.68 81.603 15.216 81.603 17.136V27.036L83.907 27.36V29.52H74.439V27.36L76.527 27.036V17.136C76.527 15.888 76.443 14.916 76.275 14.22C76.107 13.524 75.795 13.008 75.339 12.672C74.907 12.336 74.259 12.168 73.395 12.168C72.651 12.168 71.883 12.348 71.091 12.708C70.323 13.044 69.639 13.452 69.039 13.932V27.036L71.235 27.36V29.52H61.911V27.36L63.927 27.072V3.20402ZM228.181 29.844C227.437 29.844 226.789 29.592 226.237 29.088C225.685 28.56 225.409 27.9 225.409 27.108C225.409 26.22 225.721 25.5 226.345 24.948C226.993 24.372 227.773 24.084 228.685 24.084C229.549 24.084 230.233 24.36 230.737 24.912C231.241 25.44 231.493 26.076 231.493 26.82C231.493 27.756 231.181 28.5 230.557 29.052C229.957 29.58 229.165 29.844 228.181 29.844Z" fill="#DB2A6B"/>
<path d="M95.4242 29.916C94.1282 29.916 92.9642 29.808 91.9322 29.592C90.9002 29.376 89.7482 29.088 88.4762 28.728C87.6362 28.488 87.0722 28.356 86.7842 28.332L87.1082 21.672H90.0242L90.8162 26.316C91.1282 26.652 91.6802 26.952 92.4722 27.216C93.2882 27.48 94.2122 27.612 95.2442 27.612C96.8522 27.612 98.0522 27.264 98.8442 26.568C99.6602 25.848 100.068 24.852 100.068 23.58C100.068 22.74 99.8282 22.02 99.3482 21.42C98.8682 20.796 98.2082 20.244 97.3682 19.764C96.5282 19.26 95.3762 18.684 93.9122 18.036C91.9202 17.124 90.2642 16.044 88.9442 14.796C87.6482 13.524 87.0002 11.808 87.0002 9.64802C87.0002 8.30402 87.3482 7.09202 88.0442 6.01202C88.7402 4.90802 89.7722 4.04402 91.1402 3.42002C92.5322 2.77202 94.2242 2.44802 96.2162 2.44802C97.3922 2.44802 98.4242 2.53202 99.3122 2.70002C100.224 2.86802 101.208 3.09602 102.264 3.38402C102.888 3.55202 103.356 3.66002 103.668 3.70802L103.452 10.008H100.572L99.8162 5.58002C99.6002 5.36402 99.1682 5.16002 98.5202 4.96802C97.8722 4.75202 97.1522 4.64402 96.3602 4.64402C94.9202 4.64402 93.8282 4.98002 93.0842 5.65202C92.3642 6.30002 92.0042 7.17602 92.0042 8.28002C92.0042 9.16802 92.2682 9.93602 92.7962 10.584C93.3482 11.232 94.0082 11.784 94.7762 12.24C95.5442 12.672 96.7562 13.296 98.4122 14.112C99.7562 14.76 100.908 15.396 101.868 16.02C102.828 16.644 103.656 17.46 104.352 18.468C105.048 19.452 105.396 20.616 105.396 21.96C105.396 23.28 105.06 24.54 104.388 25.74C103.74 26.94 102.66 27.936 101.148 28.728C99.6602 29.52 97.7522 29.916 95.4242 29.916ZM117.116 29.916C113.948 29.916 111.584 28.992 110.024 27.144C108.488 25.272 107.72 22.728 107.72 19.512C107.72 17.352 108.116 15.48 108.908 13.896C109.724 12.312 110.864 11.1 112.328 10.26C113.792 9.42002 115.484 9.00002 117.404 9.00002C119.804 9.00002 121.652 9.63602 122.948 10.908C124.244 12.156 124.916 13.944 124.964 16.272C124.964 17.856 124.868 19.032 124.676 19.8H112.976C113.072 21.984 113.588 23.688 114.524 24.912C115.46 26.112 116.792 26.712 118.52 26.712C119.456 26.712 120.416 26.556 121.4 26.244C122.408 25.932 123.2 25.56 123.776 25.128L124.676 27.108C124.028 27.804 122.972 28.452 121.508 29.052C120.068 29.628 118.604 29.916 117.116 29.916ZM119.924 17.64C119.972 16.968 119.996 16.452 119.996 16.092C119.996 12.9 118.928 11.304 116.792 11.304C115.616 11.304 114.704 11.772 114.056 12.708C113.408 13.644 113.048 15.288 112.976 17.64H119.924ZM131.833 26.568C132.025 26.856 132.457 27.132 133.129 27.396C133.825 27.636 134.521 27.756 135.217 27.756C136.345 27.756 137.185 27.528 137.737 27.072C138.313 26.592 138.601 25.968 138.601 25.2C138.601 24.408 138.253 23.772 137.557 23.292C136.861 22.788 135.685 22.176 134.029 21.456L133.021 21.024C131.365 20.328 130.129 19.488 129.313 18.504C128.497 17.52 128.089 16.248 128.089 14.688C128.089 13.608 128.413 12.648 129.061 11.808C129.709 10.944 130.621 10.272 131.797 9.79202C132.973 9.31202 134.329 9.07202 135.865 9.07202C136.993 9.07202 137.953 9.14402 138.745 9.28802C139.561 9.43202 140.413 9.62402 141.301 9.86402C141.781 10.032 142.141 10.128 142.381 10.152V14.868H139.537L138.709 12.132C138.565 11.892 138.241 11.676 137.737 11.484C137.233 11.292 136.657 11.196 136.009 11.196C135.025 11.196 134.233 11.412 133.633 11.844C133.057 12.252 132.769 12.828 132.769 13.572C132.769 14.244 132.973 14.808 133.381 15.264C133.789 15.696 134.233 16.032 134.713 16.272C135.193 16.512 136.081 16.908 137.377 17.46C138.673 18.012 139.741 18.54 140.581 19.044C141.445 19.548 142.153 20.208 142.705 21.024C143.281 21.816 143.569 22.788 143.569 23.94C143.569 25.716 142.873 27.156 141.481 28.26C140.089 29.364 138.085 29.916 135.469 29.916C134.245 29.916 133.141 29.808 132.157 29.592C131.197 29.376 130.081 29.088 128.809 28.728L128.017 28.476V23.724H131.005L131.833 26.568ZM150.501 26.568C150.693 26.856 151.125 27.132 151.797 27.396C152.493 27.636 153.189 27.756 153.885 27.756C155.013 27.756 155.853 27.528 156.405 27.072C156.981 26.592 157.269 25.968 157.269 25.2C157.269 24.408 156.921 23.772 156.225 23.292C155.529 22.788 154.353 22.176 152.697 21.456L151.689 21.024C150.033 20.328 148.797 19.488 147.981 18.504C147.165 17.52 146.757 16.248 146.757 14.688C146.757 13.608 147.081 12.648 147.729 11.808C148.377 10.944 149.289 10.272 150.465 9.79202C151.641 9.31202 152.997 9.07202 154.533 9.07202C155.661 9.07202 156.621 9.14402 157.413 9.28802C158.229 9.43202 159.081 9.62402 159.969 9.86402C160.449 10.032 160.809 10.128 161.049 10.152V14.868H158.205L157.377 12.132C157.233 11.892 156.909 11.676 156.405 11.484C155.901 11.292 155.325 11.196 154.677 11.196C153.693 11.196 152.901 11.412 152.301 11.844C151.725 12.252 151.437 12.828 151.437 13.572C151.437 14.244 151.641 14.808 152.049 15.264C152.457 15.696 152.901 16.032 153.381 16.272C153.861 16.512 154.749 16.908 156.045 17.46C157.341 18.012 158.409 18.54 159.249 19.044C160.113 19.548 160.821 20.208 161.373 21.024C161.949 21.816 162.237 22.788 162.237 23.94C162.237 25.716 161.541 27.156 160.149 28.26C158.757 29.364 156.753 29.916 154.137 29.916C152.913 29.916 151.809 29.808 150.825 29.592C149.865 29.376 148.749 29.088 147.477 28.728L146.685 28.476V23.724H149.673L150.501 26.568ZM169.456 6.22802C168.592 6.22802 167.908 5.97602 167.404 5.47202C166.9 4.96802 166.648 4.32002 166.648 3.52802C166.648 2.61602 166.936 1.86002 167.512 1.26002C168.088 0.660018 168.856 0.360017 169.816 0.360017C170.776 0.360017 171.508 0.624017 172.012 1.15202C172.516 1.65602 172.768 2.29202 172.768 3.06002C172.768 4.02002 172.48 4.78802 171.904 5.36402C171.328 5.94002 170.524 6.22802 169.492 6.22802H169.456ZM167.548 12.924L164.992 12.24V9.82802L171.58 9.03602H171.652L172.66 9.75602V27.072L175.072 27.36V29.52H165.028V27.36L167.548 27.036V12.924ZM177.653 19.548C177.653 17.292 178.097 15.372 178.985 13.788C179.897 12.204 181.109 11.016 182.621 10.224C184.133 9.40802 185.777 9.00002 187.553 9.00002C190.577 9.00002 192.905 9.93602 194.537 11.808C196.193 13.656 197.021 16.176 197.021 19.368C197.021 21.648 196.565 23.592 195.653 25.2C194.765 26.784 193.565 27.972 192.053 28.764C190.565 29.532 188.921 29.916 187.121 29.916C184.121 29.916 181.793 28.992 180.137 27.144C178.481 25.272 177.653 22.74 177.653 19.548ZM187.409 27.576C190.121 27.576 191.477 24.96 191.477 19.728C191.477 16.992 191.153 14.916 190.505 13.5C189.857 12.06 188.801 11.34 187.337 11.34C184.553 11.34 183.161 13.956 183.161 19.188C183.161 21.924 183.497 24.012 184.169 25.452C184.865 26.868 185.945 27.576 187.409 27.576ZM202.31 12.924L200.006 12.276V9.79202L205.982 9.03602H206.09L206.99 9.75602V11.16L206.954 12.024C207.794 11.232 208.886 10.548 210.23 9.97202C211.574 9.39602 212.93 9.10802 214.298 9.10802C215.762 9.10802 216.902 9.38402 217.718 9.93602C218.558 10.464 219.158 11.304 219.518 12.456C219.878 13.608 220.058 15.168 220.058 17.136V27.072L222.254 27.36V29.52H212.966V27.36L214.91 27.072V17.136C214.91 15.888 214.826 14.916 214.658 14.22C214.49 13.5 214.178 12.984 213.722 12.672C213.29 12.336 212.666 12.168 211.85 12.168C210.482 12.168 209.018 12.756 207.458 13.932V27.036L209.618 27.36V29.52H200.222V27.36L202.31 27.036V12.924Z" fill="white"/>
</svg>
